<?xml version="1.0" encoding="UTF-8"?>
<svg id="Layer_1" data-name="Layer 1" xmlns="http://www.w3.org/2000/svg" viewBox="0 0 595.28 595.28">
  <defs>
    <style>
      .cls-1 {
        fill: #171342;
      }
    </style>
  </defs>
  <path class="cls-1" d="M381.2,243.05c-61.42,15.41-92.55,111.19-130.67,152.36-56.51,61.47-131.25,39.91-134.59-38.17-1.63-88.56,108.41-89.7,88.88-3.44-.42,1.86.94,3.6,2.84,3.67,61.25,1.97,64.8-90.67,10.64-114.42h162.89Z"/>
  <path class="cls-1" d="M214.08,476.58c61.42-15.41,92.55-111.19,130.67-152.36,56.51-61.47,131.25-39.91,134.59,38.17,1.63,88.56-108.41,89.7-88.88,3.44.42-1.86-.94-3.6-2.84-3.67-61.25-1.97-64.8,90.67-10.64,114.42h-162.89Z"/>
  <path class="cls-1" d="M376.96,223.6h-.41l-.02-.02c.15,0,.28.02.43.02Z"/>
  <path class="cls-1" d="M403.39,183.1c.56,29.98-36.72,30.36-30.09,1.15.13-.62-.32-1.22-.96-1.24-21.34-.68-22,32.55-1.97,39.39,1.86.64,3.91,1.05,6.14,1.18h.02l.02.02c1.26.98,2.07,2.54,2.07,4.28v.17c0,3.02-2.46,5.47-5.47,5.47h-149.99c-3.01,0-5.47-2.46-5.47-5.47v-.17c0-3.02,2.46-5.47,5.47-5.47h4.13c20.04-6.84,19.37-40.07-1.97-39.39-.64.02-1.09.62-.96,1.24,6.61,29.21-30.64,28.83-30.09-1.15,1.13-26.45,26.43-33.74,45.57-12.94,3.74,4.04,7.29,9.64,10.95,15.67-.98-4.26-1.52-8.7-1.52-13.28,0-29.74,22.18-53.87,49.55-53.87s49.55,24.12,49.55,53.87c0,4.6-.53,9.07-1.54,13.34,3.68-6.05,7.23-11.68,10.99-15.74,19.14-20.81,44.44-13.51,45.57,12.94Z"/>
  <path class="cls-1" d="M376.51,223.58c-2.22-.13-4.28-.53-6.14-1.18h2.78c1.26,0,2.44.43,3.36,1.18Z"/>
</svg>
